<svg width="28" height="29" viewBox="0 0 28 29" fill="none" xmlns="http://www.w3.org/2000/svg">
<g clip-path="url(#clip0_5681_276)">
<path d="M25.8557 7.11299C24.965 7.50696 24.0205 7.7657 23.0533 7.88065C24.0727 7.27099 24.8357 6.3115 25.2 5.18099C24.2433 5.75032 23.1945 6.14932 22.1013 6.36515C21.3671 5.57949 20.3938 5.05844 19.3328 4.883C18.2718 4.70756 17.1826 4.88756 16.2345 5.39501C15.2864 5.90247 14.5325 6.70895 14.09 7.68908C13.6475 8.6692 13.5412 9.76806 13.7877 10.8148C11.8476 10.7176 9.94973 10.2134 8.21718 9.33509C6.48462 8.45676 4.95616 7.22387 3.73101 5.71649C3.29735 6.46134 3.06946 7.30808 3.07067 8.16999C3.07067 9.86165 3.93167 11.3562 5.24067 12.2312C4.46602 12.2068 3.70841 11.9976 3.03101 11.621V11.6817C3.03124 12.8083 3.42111 13.9002 4.1345 14.7722C4.84789 15.6442 5.8409 16.2427 6.94517 16.4662C6.22606 16.661 5.47203 16.6898 4.74017 16.5502C5.05152 17.5199 5.65835 18.3681 6.4757 18.9758C7.29305 19.5835 8.27999 19.9204 9.29834 19.9393C8.28624 20.7342 7.12738 21.3218 5.88804 21.6685C4.64869 22.0152 3.35316 22.1143 2.07551 21.96C4.30582 23.3943 6.90212 24.1558 9.55384 24.1533C18.529 24.1533 23.4372 16.7182 23.4372 10.27C23.4372 10.06 23.4313 9.84765 23.422 9.63999C24.3773 8.94951 25.2019 8.09417 25.8568 7.11415L25.8557 7.11299Z" fill="#888888"/>
</g>
<defs>
<clipPath id="clip0_5681_276">
<rect width="28" height="28" fill="white" transform="translate(0 0.514282)"/>
</clipPath>
</defs>
</svg>
